#define exit_width 64
#define exit_height 64
static char exit_bits[] = {
   0x00, 0x00, 0x00, 0x00, 0xc0, 0xff, 0xff, 0xff, 0x00, 0x00, 0x00, 0x00,
   0x40, 0x00, 0x0c, 0x8f, 0x00, 0x00, 0x00, 0x00, 0x40, 0xff, 0x0f, 0xb0,
   0x00, 0x00, 0x00, 0x00, 0x40, 0x01, 0x0c, 0xa0, 0x00, 0x00, 0x00, 0x00,
   0x40, 0xe1, 0x0f, 0xa0, 0x00, 0x00, 0x00, 0x00, 0x40, 0xf1, 0x0f, 0xa0,
   0x00, 0x00, 0x00, 0x00, 0x40, 0xf9, 0x0f, 0xa0, 0x00, 0x00, 0x00, 0x00,
   0x40, 0x19, 0x0c, 0xa0, 0x00, 0x00, 0x00, 0x00, 0x40, 0xc9, 0xee, 0xa0,
   0x00, 0x00, 0x00, 0x00, 0x40, 0x09, 0xed, 0xa7, 0x00, 0x00, 0x00, 0x00,
   0x40, 0x59, 0xac, 0xa7, 0x00, 0x00, 0x00, 0x00, 0x4f, 0x99, 0x2f, 0xa5,
   0x00, 0x00, 0x00, 0x00, 0x50, 0x31, 0x2c, 0xa5, 0x00, 0x00, 0x00, 0x00,
   0x20, 0x41, 0x2c, 0xa5, 0xff, 0x00, 0x00, 0xe0, 0x4e, 0x81, 0x2f, 0xa5,
   0x81, 0x01, 0x00, 0x20, 0x8b, 0x71, 0x2c, 0xa5, 0x81, 0x01, 0x00, 0x28,
   0x8a, 0x09, 0x2c, 0xa5, 0x81, 0x01, 0x00, 0x48, 0x48, 0x05, 0x2c, 0xa5,
   0x81, 0x01, 0x00, 0xc9, 0x5c, 0x03, 0xec, 0xa7, 0x81, 0x01, 0x00, 0x91,
   0x77, 0x0b, 0x0c, 0xa0, 0x81, 0x01, 0x00, 0x31, 0xc3, 0x09, 0x0c, 0xa0,
   0x81, 0x01, 0x00, 0xc2, 0x06, 0x08, 0x0c, 0xa0, 0x81, 0x00, 0x04, 0x06,
   0x0c, 0x0c, 0x0c, 0xa0, 0xff, 0x00, 0x04, 0x0c, 0x10, 0x0a, 0x0c, 0xa0,
   0x00, 0x00, 0x04, 0x30, 0xe0, 0x09, 0xcc, 0xa3, 0xff, 0x00, 0x0c, 0x00,
   0x40, 0x39, 0x2c, 0xa7, 0x81, 0x00, 0x0c, 0x00, 0x40, 0xc9, 0xcf, 0xa1,
   0x81, 0x00, 0x1c, 0x00, 0x40, 0x09, 0x0c, 0xa0, 0xff, 0x7f, 0x14, 0x00,
   0x40, 0x09, 0x0c, 0xa0, 0xff, 0x7f, 0x14, 0x00, 0x40, 0x09, 0x0c, 0xa0,
   0x11, 0x00, 0x10, 0x00, 0x40, 0x09, 0x0c, 0xa0, 0x11, 0x00, 0x10, 0x00,
   0x40, 0x11, 0x0d, 0xa0, 0x11, 0x00, 0x10, 0x00, 0x40, 0x11, 0x0d, 0xa0,
   0x11, 0x00, 0x18, 0x00, 0x40, 0x11, 0x0d, 0xa0, 0x91, 0xff, 0x1f, 0x00,
   0x40, 0x11, 0x0d, 0xa0, 0x91, 0xff, 0x0f, 0x00, 0x40, 0x11, 0x0d, 0xa0,
   0x11, 0x60, 0x00, 0x00, 0x40, 0x11, 0x0d, 0xa0, 0x11, 0x60, 0x00, 0x00,
   0x40, 0x11, 0x0d, 0xa0, 0x11, 0x60, 0x00, 0x00, 0x40, 0x11, 0x0d, 0xa0,
   0x11, 0x60, 0x00, 0x00, 0x40, 0x11, 0x0d, 0xa0, 0x11, 0x60, 0x00, 0x00,
   0x40, 0xf1, 0x0f, 0xa0, 0x11, 0xf0, 0x00, 0x00, 0x40, 0xe1, 0x0e, 0xa0,
   0x11, 0xf0, 0x00, 0x00, 0x40, 0x11, 0x0d, 0xa0, 0x11, 0xff, 0x0f, 0x00,
   0x40, 0x11, 0x0d, 0xa0, 0xff, 0xff, 0xff, 0xff, 0xff, 0xff, 0xff, 0xff,
   0xff, 0xff, 0xff, 0xff, 0xff, 0xff, 0xff, 0xff, 0x00, 0x00, 0x00, 0x00,
   0x00, 0x00, 0x00, 0x00, 0x00, 0x00, 0x00, 0x00, 0x00, 0x00, 0x00, 0x00,
   0x00, 0x00, 0x00, 0x00, 0x00, 0x00, 0x00, 0x00, 0x00, 0x00, 0x00, 0x00,
   0x00, 0x00, 0x00, 0x00, 0x00, 0x00, 0x00, 0x00, 0x00, 0x00, 0x00, 0x00,
   0x00, 0x00, 0x00, 0x00, 0x00, 0x00, 0x00, 0x00, 0x00, 0x00, 0x00, 0x00,
   0x00, 0x00, 0x00, 0x00, 0x00, 0x00, 0x00, 0x00, 0x00, 0x00, 0x00, 0x00,
   0x00, 0x00, 0x00, 0x00, 0x00, 0x00, 0x00, 0x00, 0x00, 0x00, 0x00, 0x00,
   0x00, 0x00, 0x00, 0x00, 0x00, 0x00, 0x00, 0x00, 0x00, 0x00, 0x00, 0x00,
   0x00, 0x00, 0x00, 0x00, 0x00, 0x00, 0x00, 0x00, 0x00, 0x00, 0x00, 0x00,
   0x00, 0x00, 0x00, 0x00, 0x00, 0x00, 0x00, 0x00, 0x00, 0x00, 0x00, 0x00,
   0x00, 0x00, 0x00, 0x00, 0x00, 0x00, 0x00, 0x00, 0x00, 0x00, 0x00, 0x00,
   0x00, 0x00, 0x00, 0x00, 0x00, 0x00, 0x00, 0x00, 0x00, 0x00, 0x00, 0x00,
   0x00, 0x00, 0x00, 0x00, 0x00, 0x00, 0x00, 0x00};
