#define exit_width 64
#define exit_height 64
static char exit_bits[] = {
   0x00, 0x00, 0x00, 0x00, 0xc0, 0xff, 0xff, 0xff, 0x00, 0x00, 0x00, 0x00,
   0x40, 0x00, 0x00, 0x80, 0x00, 0x00, 0x00, 0x00, 0x40, 0xff, 0xff, 0xbf,
   0x00, 0x00, 0x00, 0x00, 0x40, 0x01, 0x00, 0xa0, 0x00, 0x00, 0x00, 0x00,
   0x40, 0x01, 0x00, 0xa0, 0x00, 0x00, 0x00, 0x00, 0x40, 0x01, 0x00, 0xa0,
   0x00, 0x00, 0x00, 0x00, 0x40, 0x01, 0x00, 0xa0, 0x00, 0x00, 0x00, 0x00,
   0x40, 0x01, 0x00, 0xa0, 0x00, 0x00, 0x00, 0x00, 0x40, 0x01, 0x00, 0xa0,
   0x00, 0x00, 0x80, 0x07, 0x40, 0xe1, 0xff, 0xa1, 0x00, 0x00, 0xc0, 0x1f,
   0x40, 0x61, 0x80, 0xa1, 0x00, 0x00, 0xe0, 0x1f, 0x40, 0x61, 0x80, 0xa1,
   0x00, 0x00, 0x40, 0x38, 0x40, 0x61, 0x80, 0xa1, 0x00, 0x00, 0xc0, 0x31,
   0x40, 0x61, 0x80, 0xa1, 0xff, 0x00, 0xa0, 0x30, 0x40, 0x61, 0x80, 0xa1,
   0x81, 0x01, 0x10, 0x38, 0x40, 0x61, 0x80, 0xa1, 0x81, 0x01, 0x60, 0x39,
   0x40, 0x61, 0x80, 0xa1, 0x81, 0x01, 0x80, 0x18, 0x40, 0x61, 0x80, 0xa1,
   0x81, 0x01, 0x00, 0x05, 0x40, 0x61, 0x80, 0xa1, 0x81, 0x01, 0x00, 0x0b,
   0x40, 0x61, 0x80, 0xa1, 0x81, 0x01, 0x00, 0x09, 0x40, 0xe1, 0xff, 0xa1,
   0x81, 0x01, 0x80, 0x10, 0x40, 0x01, 0x00, 0xa0, 0x81, 0x00, 0x80, 0x10,
   0x40, 0x01, 0x00, 0xa0, 0xff, 0x00, 0x80, 0x10, 0x40, 0x1d, 0x00, 0xa0,
   0x00, 0x00, 0x40, 0x30, 0x40, 0x15, 0x00, 0xa0, 0xff, 0xf0, 0x7e, 0x38,
   0x40, 0xfd, 0x00, 0xa0, 0x81, 0x0e, 0x01, 0x5c, 0x40, 0x85, 0x00, 0xa0,
   0x81, 0xf2, 0x01, 0x5a, 0x40, 0xfd, 0x00, 0xa0, 0xff, 0x7f, 0xfe, 0x49,
   0x40, 0x15, 0x00, 0xa0, 0xff, 0x7f, 0x20, 0x48, 0x40, 0x1d, 0x00, 0xa0,
   0x11, 0x00, 0xe0, 0x4f, 0x40, 0x01, 0x00, 0xa0, 0x11, 0xf0, 0x3f, 0x48,
   0x40, 0x01, 0x00, 0xa0, 0x11, 0x18, 0x00, 0x68, 0x40, 0x01, 0x00, 0xa0,
   0x11, 0x08, 0x00, 0x66, 0x40, 0x01, 0x00, 0xa0, 0x11, 0x84, 0xff, 0x7f,
   0x40, 0x01, 0x00, 0xa0, 0x11, 0xc4, 0xfe, 0x3f, 0x40, 0x01, 0x00, 0xa0,
   0x11, 0x44, 0x80, 0x01, 0x40, 0x01, 0x00, 0xa0, 0x11, 0x64, 0x80, 0x01,
   0x40, 0x01, 0x00, 0xa0, 0x11, 0x3c, 0x80, 0x01, 0x40, 0x01, 0x00, 0xa0,
   0x11, 0x28, 0x80, 0x01, 0x40, 0x01, 0x00, 0xa0, 0x11, 0x7c, 0x80, 0x01,
   0x40, 0x01, 0x00, 0xa0, 0x91, 0x43, 0xc0, 0x03, 0x40, 0x01, 0x00, 0xa0,
   0x51, 0x40, 0xc0, 0x03, 0x40, 0x01, 0x00, 0xa0, 0xd1, 0x7f, 0xfc, 0x3f,
   0x40, 0x01, 0x00, 0xa0, 0xff, 0xff, 0xff, 0xff, 0xff, 0xff, 0xff, 0xff,
   0xff, 0xff, 0xff, 0xff, 0xff, 0xff, 0xff, 0xff, 0x00, 0x00, 0x00, 0x00,
   0x00, 0x00, 0x00, 0x00, 0x00, 0x00, 0x00, 0x00, 0x00, 0x00, 0x00, 0x00,
   0x00, 0x00, 0x00, 0x00, 0x00, 0x00, 0x00, 0x00, 0x00, 0x00, 0x00, 0x00,
   0x00, 0x00, 0x00, 0x00, 0x00, 0x00, 0x00, 0x00, 0x00, 0x00, 0x00, 0x00,
   0x00, 0x00, 0x00, 0x00, 0x00, 0x00, 0x00, 0x00, 0x00, 0x00, 0x00, 0x00,
   0x00, 0x00, 0x00, 0x00, 0x00, 0x00, 0x00, 0x00, 0x00, 0x00, 0x00, 0x00,
   0x00, 0x00, 0x00, 0x00, 0x00, 0x00, 0x00, 0x00, 0x00, 0x00, 0x00, 0x00,
   0x00, 0x00, 0x00, 0x00, 0x00, 0x00, 0x00, 0x00, 0x00, 0x00, 0x00, 0x00,
   0x00, 0x00, 0x00, 0x00, 0x00, 0x00, 0x00, 0x00, 0x00, 0x00, 0x00, 0x00,
   0x00, 0x00, 0x00, 0x00, 0x00, 0x00, 0x00, 0x00, 0x00, 0x00, 0x00, 0x00,
   0x00, 0x00, 0x00, 0x00, 0x00, 0x00, 0x00, 0x00, 0x00, 0x00, 0x00, 0x00,
   0x00, 0x00, 0x00, 0x00, 0x00, 0x00, 0x00, 0x00, 0x00, 0x00, 0x00, 0x00,
   0x00, 0x00, 0x00, 0x00, 0x00, 0x00, 0x00, 0x00};
