#define Postage_width 128
#define Postage_height 64
static char Postage_bits[] = {
   0x00, 0x00, 0x00, 0x00, 0x00, 0x00, 0x00, 0x00, 0x00, 0x00, 0x00, 0x00,
   0x00, 0x00, 0x00, 0x00, 0x00, 0x00, 0x00, 0x00, 0x00, 0x00, 0x00, 0x00,
   0x00, 0x00, 0x00, 0x00, 0x00, 0x00, 0x00, 0x60, 0xf8, 0xff, 0xff, 0xff,
   0xff, 0xff, 0x07, 0xe0, 0xff, 0xff, 0xff, 0xff, 0xff, 0xff, 0xff, 0x07,
   0x04, 0x00, 0x00, 0x00, 0x00, 0x00, 0x08, 0x90, 0x07, 0x00, 0x00, 0x04,
   0x00, 0x00, 0x00, 0x08, 0x08, 0x00, 0x00, 0x00, 0x00, 0x00, 0x10, 0x50,
   0x38, 0xfe, 0x03, 0x02, 0x00, 0x00, 0x00, 0x64, 0xf0, 0xff, 0xff, 0xff,
   0xff, 0x7d, 0x17, 0x30, 0xc6, 0x00, 0xfe, 0xff, 0xff, 0xff, 0xff, 0x03,
   0x08, 0x00, 0x00, 0x00, 0x00, 0x04, 0x16, 0x10, 0x04, 0x03, 0x40, 0x00,
   0x00, 0x00, 0x00, 0x04, 0x10, 0x00, 0x00, 0x00, 0x00, 0xc8, 0x12, 0x08,
   0x00, 0xe4, 0x21, 0x00, 0x00, 0x00, 0x00, 0x62, 0xe0, 0xff, 0xff, 0xff,
   0xff, 0x91, 0x11, 0x08, 0x80, 0x0f, 0xff, 0xff, 0xff, 0xff, 0xff, 0x01,
   0x10, 0x00, 0xe0, 0xff, 0x30, 0x33, 0x08, 0x08, 0x70, 0x08, 0x04, 0x00,
   0x00, 0x00, 0x00, 0x02, 0x20, 0x00, 0x1c, 0x00, 0x87, 0x6c, 0x04, 0x04,
   0x08, 0x37, 0x02, 0x00, 0x00, 0x00, 0x00, 0x61, 0xc0, 0xff, 0x03, 0x00,
   0x38, 0x0b, 0x02, 0x04, 0x04, 0xc0, 0xff, 0xff, 0xff, 0xff, 0xff, 0x00,
   0x20, 0x40, 0x5c, 0x49, 0x41, 0x62, 0x01, 0x04, 0x02, 0x40, 0x00, 0x00,
   0x00, 0x00, 0x00, 0x01, 0x40, 0x30, 0xc4, 0x55, 0x81, 0x89, 0x00, 0x02,
   0xfa, 0x23, 0x00, 0x00, 0x00, 0x00, 0x80, 0x60, 0x80, 0x0f, 0x4c, 0x5d,
   0x01, 0xa2, 0x00, 0x76, 0x02, 0xfc, 0xff, 0xff, 0xff, 0xff, 0x7f, 0x00,
   0x00, 0x06, 0x44, 0x55, 0x01, 0xac, 0x00, 0xaa, 0x05, 0x00, 0x00, 0x00,
   0x00, 0x00, 0x00, 0x00, 0x00, 0x01, 0x5c, 0x55, 0x07, 0x10, 0x01, 0x85,
   0xc6, 0xff, 0xff, 0xff, 0xff, 0xff, 0xff, 0x6f, 0x80, 0x00, 0x00, 0x00,
   0x00, 0x60, 0xfe, 0x01, 0x48, 0x00, 0x00, 0x00, 0x00, 0x00, 0x00, 0x08,
   0x80, 0x00, 0x00, 0x00, 0x00, 0x20, 0x01, 0x2c, 0x49, 0x00, 0x00, 0x00,
   0x00, 0x00, 0x00, 0x08, 0x40, 0x00, 0x00, 0x00, 0x00, 0x40, 0x90, 0x04,
   0x48, 0x12, 0x86, 0x63, 0xcc, 0x33, 0xe6, 0x69, 0x20, 0x00, 0x00, 0x00,
   0x00, 0x80, 0x4d, 0x62, 0x49, 0x12, 0x89, 0x94, 0x92, 0x48, 0x29, 0x08,
   0x20, 0x00, 0x00, 0x00, 0x00, 0x80, 0xfe, 0x85, 0x68, 0x12, 0x81, 0x94,
   0x82, 0x48, 0x21, 0x08, 0x10, 0x00, 0x00, 0x00, 0x00, 0x00, 0xb5, 0x10,
   0x68, 0x12, 0x86, 0x93, 0x8c, 0x78, 0xed, 0x68, 0x08, 0x00, 0x00, 0x00,
   0x00, 0x00, 0xbe, 0x41, 0x6d, 0x12, 0x88, 0x90, 0x90, 0x48, 0x29, 0x08,
   0x08, 0x00, 0x00, 0x00, 0x00, 0x00, 0x12, 0x04, 0x6d, 0x12, 0x89, 0x90,
   0x92, 0x48, 0x29, 0x08, 0x08, 0x00, 0x00, 0x00, 0x00, 0x00, 0x1a, 0x10,
   0x64, 0x4d, 0xa6, 0x60, 0x8c, 0x48, 0xe6, 0x69, 0x04, 0x00, 0x00, 0x00,
   0x00, 0x00, 0x44, 0x85, 0x77, 0x00, 0x00, 0x00, 0x00, 0x00, 0x00, 0x08,
   0x04, 0x00, 0x00, 0x00, 0x00, 0x00, 0x54, 0x40, 0x67, 0x00, 0x00, 0x00,
   0x00, 0x00, 0x00, 0x08, 0x04, 0x00, 0x00, 0x00, 0x00, 0x00, 0x24, 0xe2,
   0x77, 0x00, 0x00, 0x00, 0x00, 0x00, 0x00, 0x68, 0x02, 0x00, 0x00, 0x00,
   0x00, 0x00, 0x48, 0x98, 0x7b, 0x00, 0x00, 0x00, 0x00, 0x00, 0x00, 0x08,
   0x02, 0x00, 0x00, 0x00, 0x00, 0x00, 0x88, 0xd6, 0x7a, 0x00, 0x00, 0x00,
   0x00, 0x00, 0x00, 0x08, 0x02, 0x00, 0x00, 0x00, 0x00, 0x00, 0x28, 0xcc,
   0x72, 0x00, 0x00, 0x00, 0x00, 0x00, 0x00, 0x68, 0x02, 0x00, 0x00, 0x00,
   0x00, 0x00, 0xe8, 0xa7, 0x59, 0x00, 0x00, 0x00, 0x00, 0x00, 0x00, 0x08,
   0x02, 0x00, 0x00, 0x00, 0x00, 0x00, 0xb8, 0x4c, 0x4d, 0x00, 0x00, 0x00,
   0x00, 0x00, 0x00, 0x08, 0x02, 0x00, 0x00, 0x00, 0x00, 0x00, 0xc8, 0xa3,
   0x47, 0x00, 0x00, 0x00, 0x00, 0x00, 0x00, 0x68, 0x02, 0x00, 0x00, 0x00,
   0x00, 0x00, 0x28, 0xb4, 0x40, 0x00, 0x00, 0x00, 0x00, 0x00, 0x00, 0x08,
   0x02, 0x00, 0x00, 0x00, 0x00, 0x00, 0x18, 0x58, 0x40, 0x00, 0x00, 0x00,
   0x00, 0x00, 0x00, 0x08, 0x02, 0x00, 0x00, 0x00, 0x00, 0x00, 0x08, 0x28,
   0x40, 0x0c, 0x00, 0x00, 0x00, 0x00, 0x0c, 0x68, 0x02, 0x00, 0x00, 0x00,
   0x00, 0x00, 0x08, 0x38, 0x40, 0x32, 0x01, 0x00, 0x00, 0x00, 0x32, 0x09,
   0x02, 0x00, 0x00, 0x00, 0x00, 0x00, 0x08, 0x28, 0x40, 0xc0, 0x00, 0x00,
   0x00, 0x00, 0xc0, 0x08, 0x04, 0x00, 0x00, 0x00, 0x00, 0x00, 0x04, 0x28,
   0x40, 0x00, 0x00, 0x00, 0x00, 0x00, 0x00, 0x68, 0x04, 0x00, 0x00, 0x00,
   0x00, 0x00, 0x0c, 0x24, 0x40, 0x0c, 0x00, 0x00, 0x00, 0x00, 0x0c, 0x08,
   0x04, 0x00, 0x00, 0x00, 0x00, 0x00, 0x0c, 0x44, 0x40, 0x32, 0x01, 0x00,
   0x00, 0x00, 0x32, 0x09, 0x08, 0x00, 0x00, 0x00, 0x00, 0x00, 0x0a, 0x46,
   0x40, 0xc0, 0x00, 0x00, 0x00, 0x00, 0xc0, 0x68, 0x08, 0x00, 0x00, 0x00,
   0x00, 0x00, 0x0a, 0x46, 0x40, 0x00, 0x00, 0x00, 0x00, 0x00, 0x00, 0x08,
   0x08, 0x00, 0x00, 0x00, 0x00, 0x00, 0x0a, 0x45, 0x40, 0x0c, 0x00, 0x00,
   0x00, 0x00, 0x0c, 0x08, 0x10, 0x00, 0x00, 0x00, 0x00, 0x00, 0x19, 0x49,
   0x40, 0x32, 0x01, 0x00, 0x00, 0x00, 0x32, 0x69, 0x20, 0x00, 0x00, 0x00,
   0x00, 0x80, 0x90, 0x88, 0x40, 0xc0, 0x00, 0x00, 0x00, 0x00, 0xc0, 0x08,
   0x20, 0x00, 0x00, 0x00, 0x00, 0x80, 0x90, 0x90, 0x40, 0x00, 0x00, 0x00,
   0x00, 0x00, 0x00, 0x08, 0x40, 0x00, 0x00, 0x00, 0x00, 0x40, 0x50, 0xa0,
   0x40, 0x00, 0x00, 0x00, 0x00, 0x00, 0x00, 0x68, 0x80, 0x00, 0x00, 0x00,
   0x00, 0x20, 0x50, 0x20, 0x41, 0x00, 0x00, 0x00, 0x00, 0x00, 0x00, 0x08,
   0x80, 0x00, 0x00, 0x00, 0x00, 0x20, 0x50, 0x40, 0x41, 0x00, 0x00, 0x00,
   0x00, 0x00, 0x00, 0x08, 0x00, 0x01, 0x24, 0xc4, 0x0c, 0x10, 0xd8, 0x73,
   0x4f, 0x00, 0x00, 0x00, 0x00, 0x00, 0x00, 0x68, 0x00, 0x06, 0x2a, 0x2a,
   0x02, 0x0c, 0xfc, 0xff, 0x5f, 0x00, 0x00, 0x00, 0x00, 0x00, 0x00, 0x08,
   0x00, 0x08, 0x22, 0x4e, 0x04, 0x02, 0x7e, 0xec, 0x71, 0x00, 0x00, 0x00,
   0x00, 0x00, 0x00, 0x08, 0x00, 0x30, 0x2a, 0x8a, 0x88, 0x01, 0xc3, 0x18,
   0x63, 0x00, 0x00, 0x00, 0x00, 0x00, 0x00, 0x68, 0x00, 0x40, 0xe4, 0x6a,
   0x46, 0x80, 0x81, 0x19, 0x66, 0x00, 0x00, 0x00, 0x00, 0x00, 0x00, 0x08,
   0x00, 0x80, 0x03, 0x00, 0x38, 0x00, 0xc3, 0x0c, 0x73, 0x00, 0x00, 0x00,
   0x00, 0x00, 0x00, 0x08, 0x00, 0x00, 0x1c, 0x00, 0x07, 0x00, 0x00, 0x00,
   0x40, 0x00, 0x00, 0x00, 0x00, 0x00, 0x00, 0x68, 0x00, 0x00, 0xe0, 0xff,
   0x00, 0x00, 0x00, 0x00, 0x40, 0x00, 0x00, 0x00, 0x00, 0x00, 0x00, 0x08,
   0x00, 0x00, 0x00, 0x00, 0x00, 0x00, 0x00, 0x00, 0x40, 0x00, 0x00, 0x00,
   0x00, 0x00, 0x00, 0x08, 0x00, 0x00, 0x00, 0x00, 0x00, 0x00, 0x00, 0x00,
   0xc0, 0xff, 0xff, 0xff, 0xff, 0xff, 0xff, 0x6f, 0x00, 0x00, 0x00, 0x00,
   0x00, 0x00, 0x00, 0x00, 0x00, 0x00, 0x00, 0x00, 0x00, 0x00, 0x00, 0x00,
   0x00, 0x00, 0x00, 0x00, 0x00, 0x00, 0x00, 0x00, 0x00, 0x00, 0x00, 0x00,
   0x00, 0x00, 0x00, 0x00};
