/* XPM */
static char * noname[] = {
/* noname pixmap
 * width height ncolors chars_per_pixel */
"48 48 53 2 ",
"`` c black 	 s c0 ",
"`a c #997788 	 s c1 ",
"`b c #887777 	 s c2 ",
"`c c #777766 	 s c3 ",
"`d c #443333 	 s c4 ",
"`e c #333322 	 s c5 ",
"`f c #221111 	 s c6 ",
"`g c #111100 	 s c7 ",
"`h c #886666 	 s c8 ",
"`i c #776655 	 s c9 ",
"`j c #664444 	 s c10 ",
"`k c #554433 	 s c11 ",
"`l c #552233 	 s c12 ",
"`m c #888899 	 s c13 ",
"`n c #778888 	 s c14 ",
"`o c #775544 	 s c15 ",
"`p c #665533 	 s c16 ",
"`q c #553322 	 s c17 ",
"`r c gray60 	 s c18 ",
"`s c #889988 	 s c19 ",
"`t c #667766 	 s c20 ",
"`u c #445544 	 s c21 ",
"`v c gray20 	 s c22 ",
"`w c #aa0000 	 s c23 ",
"`x c #221122 	 s c24 ",
"`y c #111111 	 s c25 ",
"`z c #886644 	 s c26 ",
"`{ c #774433 	 s c27 ",
"`| c #440000 	 s c28 ",
"`} c #998888 	 s c29 ",
"`~ c #888877 	 s c30 ",
"a` c #444433 	 s c31 ",
"aa c #442233 	 s c32 ",
"ab c #332222 	 s c33 ",
"ac c #222211 	 s c34 ",
"ad c #885533 	 s c35 ",
"ae c red 	 s c36 ",
"af c #777755 	 s c37 ",
"ag c #553333 	 s c38 ",
"ah c #cc0000 	 s c39 ",
"ai c #990000 	 s c40 ",
"aj c #660000 	 s c41 ",
"ak c #776644 	 s c42 ",
"al c #664433 	 s c43 ",
"am c #554422 	 s c44 ",
"an c #99aa99 	 s c45 ",
"ao c #776677 	 s c46 ",
"ap c gray40 	 s c47 ",
"aq c #554455 	 s c48 ",
"ar c #444444 	 s c49 ",
"as c #332233 	 s c50 ",
"at c #222222 	 s c51 ",
"au c #110011 	 s c52 ",
/* pixels */
"````````````````````````````````````````````````````````````````````````````````````````````````",
"````````````````````````````````````````````````````````````````````````````````````````````````",
"````````````````````````````````````````````````````````````````````````````````````````````````",
"````````````````````````````````````````````````````````````````````````````````````````````````",
"````````````````````````````````````````````````````````````````````````````````````````````````",
"````````````````````````````````````````````````````````````````````````````````````````````````",
"```````````````````````w`w`w`w`w`w`w`w`w`w`w`w`w`w`w`w`w`w`w`w`w`w`w`w`w`w`w`w`w`w`w`wah````````",
"`````````````````````w`w`w`w`w`w`w`w`w`w`w`w`w`w`w`w`w`w`w`w`w`w`w`w`w`w`w`w`w`w`w`wahai````````",
"```````````````````w`w`w`w`w`w`w`w`w`w`w`w`w`w`w`w`w`w`w`w`w`w`w`w`w`w`w`w`w`w`w`wahaiai````````",
"`````````````````w`w`w`w`w`w`w`w`w`w`w`w`w`w`w`w`w`w`w`w`w`w`w`w`w`w`w`w`w`w`w`wahaiaiai````````",
"```````````````w`w`w`w`w`w`w`w`w`w`w`w`w`w`w`w`w`w`w`w`w`w`w`w`w`w`w`w`w`w`w`wahaiaiaiai````````",
"`````````````w`w`w`w`w`w`w`w`w`w`w`w`w`w`w`w`w`w`w`w`w`w`w`w`w`w`w`w`w`w`w`wahaiaiaiaiai````````",
"``````````ahahahahahahahahahahahahahahahahahahahahahahahahahahahahahahahahahaiaiaiaiaiai````````",
"``````````aiaiaiaiaiaiaiaiaiaiaiaiaiaiaiaiaiaiaiaiaiaiaiaiaiaiaiaiaiaiaiaiahaiaiaiaiaiai````````",
"``````````aiaiaiaiaiaiaiaiaiaiaiaiaiaiaiaiaiaiaiaiaiaiaiaiaiaiaiaiaiaiaiaiahaiaiaiaiaiai````````",
"``````````aiaiaiaiaiaiaiaiaiaiaiaiaiaiaiaiaiaiaiaiaiaiaiaiaiaiaiaiaiaiaiaiahaiaiaiaiaiai````````",
"``````````aiaiajajajajajajajajajajajajajajajajajajajajajajajajajajajajaiaiahaiaiaiaiaiai````````",
"``````````aiaiajajajajajajajajajajajajajajajajajajajajajajajajajajajajaiaiahaiaiaiaiaiai````````",
"``````````aiaiajajajajajajajajajajajajajajajajajajajajajajajajajajajajaiaiahaiaiaiaiaiai````````",
"``````````aiaiaiaiaiaiaiaiaiaiaiaiaiaiaiaiaiaiaiaiaiaiaiaiaiaiaiaiaiaiaiaiahaiaiaiaiaiai````````",
"``````````aiaiaiaiaiaiaiaiaiaiaiaiaiaiaiaiaiaiaiaiaiaiaiaiaiaiaiaiaiaiaiaiahaiaiaiaiaiai````````",
"``````````aiaiaiaiaiaiaiaiaiaiaiaiaiaiaiaiaiaiaiaiaiaiaiaiaiaiaiaiaiaiaiaiahaiaiaiaiaiai````````",
"``````````aiaiaiaiaiaiaiaiaiaiaiaiaiai``````````aiaiaiaiaiaiaiaiaiaiaiaiaiahaiaiaiaiaiai````````",
"``````````aiaiaiaiaiaiaiaiaiaiaiaiaiaiaiaiaiaiaiaiaiaiaiaiaiaiaiaiaiaiaiaiahaiaiaiaiaiai````````",
"``````````aiaiaiaiaiaiaiaiaiaiaiaiai``````````````aiaiaiaiaiaiaiaiaiaiaiaiahaiaiaiaiaiai````````",
"``````````aiaiaiaiaiaiaiaiaiaiaiaiaiaiaiai``aiaiaiaiaiaiaiaiaiaiaiaiaiaiaiahaiaiaiaiaiai````````",
"``````````aiaiaiaiaiaiaiaiaiaiaiaiaiaiaiai``aiaiaiaiaiaiaiaiaiaiaiaiaiaiaiahaiaiaiaiai``````````",
"``````````aiaiaiaiaiaiaiaiaiaiaiaiaiaiaiai``aiaiaiaiaiaiaiaiaiaiaiaiaiaiaiahaiaiaiai````````````",
"``````````aiaiaiaiaiaiaiaiaiaiaiaiaiaiaiai``aiaiaiaiaiaiaiaiaiaiaiaiaiaiaiahaiaiai``````````````",
"``````````aiaiaiaiaiaiaiaiaiaiaiaiaiaiaiaiaiaiaiaiaiaiaiaiaiaiaiaiaiaiaiaiahaiai````````````````",
"``````````aiaiaiaiaiaiaiaiaiaiaiaiaiaiaiaiaiaiaiaiaiaiaiaiaiaiaiaiaiaiaiaiahai``````````````````",
"``````````aiaiaiaiaiaiaiaiaiaiaiaiaiaiaiaiaiaiaiaiaiaiaiaiaiaiaiaiaiaiaiaiah````````````````````",
"`````````````````````````````````````````|`|`|`|ababas`e````````````````````````````````````````",
"``````````````````````````````````````aeaeaeaeauatas`eas````````````````````````````````````````",
"````````````````````````````````````````au`gau`yas`eaa`e````````````````````````````````````````",
"`````````````````````````````````````````y`y`y`x`e`da``d````````````````````````````````````````",
"`````````````````````````````````````````f`y`fac`l`qagam````````````````````````````````````````",
"`````````````````````````````````````````y`x`y`xa``k`pal````````````````````````````````````````",
"`````````````````````````````````````````x`y`fabag`p`{ad````````````````````````````````````````",
"````````````````````````````````````````atatat`v`k`jak`z````````````````````````````````````````",
"````````````````````````````````````````aa`v`da``oak`iaf````````````````````````````````````````",
"````````````````````````````````````````araq`uaq`c`h`c`b````````````````````````````````````````",
"````````````````````````````````````````ap`taoap`b`~`a`}````````````````````````````````````````",
"`````````````````````````````````````````n`m`s`r`s`ran``````````````````````````````````````````",
"````````````````````````````````````````````````````````````````````````````````````````````````",
"````````````````````````````````````````````````````````````````````````````````````````````````",
"````````````````````````````````````````````````````````````````````````````````````````````````",
"````````````````````````````````````````````````````````````````````````````````````````````````"
} ;
