/* XPM */
static char * noname[] = {
/* noname pixmap
 * width height ncolors chars_per_pixel */
"72 72 60 2 ",
"`` c black 	 s c0 ",
"`a c #ffff88 	 s c1 ",
"`b c #997755 	 s c2 ",
"`c c #991155 	 s c3 ",
"`d c #997788 	 s c4 ",
"`e c #887777 	 s c5 ",
"`f c #777766 	 s c6 ",
"`g c #443333 	 s c7 ",
"`h c #333322 	 s c8 ",
"`i c #221111 	 s c9 ",
"`j c #111100 	 s c10 ",
"`k c #886666 	 s c11 ",
"`l c #776655 	 s c12 ",
"`m c #664444 	 s c13 ",
"`n c #554433 	 s c14 ",
"`o c #552233 	 s c15 ",
"`p c #888899 	 s c16 ",
"`q c #778888 	 s c17 ",
"`r c #775544 	 s c18 ",
"`s c #665533 	 s c19 ",
"`t c #553322 	 s c20 ",
"`u c #dddddd 	 s c21 ",
"`v c gray60 	 s c22 ",
"`w c #889988 	 s c23 ",
"`x c #667766 	 s c24 ",
"`y c #445544 	 s c25 ",
"`z c gray20 	 s c26 ",
"`{ c #aa0000 	 s c27 ",
"`| c #223322 	 s c28 ",
"`} c #221122 	 s c29 ",
"`~ c #111111 	 s c30 ",
"a` c #886644 	 s c31 ",
"aa c #774433 	 s c32 ",
"ab c #440000 	 s c33 ",
"ac c #998888 	 s c34 ",
"ad c #888877 	 s c35 ",
"ae c #444433 	 s c36 ",
"af c #442233 	 s c37 ",
"ag c #332222 	 s c38 ",
"ah c #222211 	 s c39 ",
"ai c #004422 	 s c40 ",
"aj c #885533 	 s c41 ",
"ak c red 	 s c42 ",
"al c #777755 	 s c43 ",
"am c #553333 	 s c44 ",
"an c #cc0000 	 s c45 ",
"ao c #990000 	 s c46 ",
"ap c #ddaa77 	 s c47 ",
"aq c #553399 	 s c48 ",
"ar c #776644 	 s c49 ",
"as c #664433 	 s c50 ",
"at c #554422 	 s c51 ",
"au c #99aa99 	 s c52 ",
"av c #776677 	 s c53 ",
"aw c gray40 	 s c54 ",
"ax c #554455 	 s c55 ",
"ay c #444444 	 s c56 ",
"az c #332233 	 s c57 ",
"a{ c #222222 	 s c58 ",
"a| c #110011 	 s c59 ",
/* pixels */
"````````````````````````````````````````````````````````````````````````````````````````````````````````````````````````````````````````````````",
"````````````````````````````````````````````````````````````````````````````````````````````````````````````````````````````````````````````````",
"````````````````````````````````````````````````````````````````````````````````````````````````````````````````````````````````````````````````",
"````````````````````````````````````````````````````````````````````````````````````````````````````````````````````````````````````````````````",
"````````````````````````````````````````````````````````````````````````````````````````````````````````````````````````````````````````````````",
"````````````````````````````````````````````````````````````````````````````````````````````````````````````````````````````````````````````````",
"````````````````````````````````````````````````````````````````````````````````````````````````````````````````````````````````````````````````",
"````````````````````````````````````````````````````````````````````````````````````````````````````````````````````````````````````````````````",
"````````````````````````````````````````````````````````````````````````````````````````````````````````````````````````````````````````````````",
"```````````````````````````````````{`{`{`{`{`{`{`{`{`{`{`{`{`{`{`{`{`{`{`{`{`{`{`{`{`{`{`{`{`{`{`{`{`{`{`{`{`{`{`{`{`{`{`{`{`{`{`{an````````````",
"```````````````````````````````````{`{`{`{`{`{`{`{`{`{`{`{`{`{`{`{`{`{`{`{`{`{`{`{`{`{`{`{`{`{`{`{`{`{`{`{`{`{`{`{`{`{`{`{`{`{`{`{an````````````",
"```````````````````````````````{`{`{`{`{`{`{`{`{`{`{`{`{`{`{`{`{`{`{`{`{`{`{`{`{`{`{`{`{`{`{`{`{`{`{`{`{`{`{`{`{`{`{`{`{`{`{`{ananao````````````",
"`````````````````````````````{`{`{`{`{`{`{`{`{`{`{`{`{`{`{`{`{`{`{`{`{`{`{`{`{`{`{`{`{`{`{`{`{`{`{`{`{`{`{`{`{`{`{`{`{`{`{`{anaoaoao````````````",
"`````````````````````````````{`{`{`{`{`{`{`{`{`{`{`{`{`{`{`{`{`{`{`{`{`{`{`{`{`{`{`{`{`{`{`{`{`{`{`{`{`{`{`{`{`{`{`{`{`{`{`{anaoaoao````````````",
"```````````a`a`a`a`a`a`a`a`a`a`a`a`a`a`a`a`a`a`a`a`a`a`a`a`{`{`{`{apapapapapapapapapapapapapapapapapapapapapapapap`{`{`{ananaoaoaoao````````````",
"```````````a`a`a`a`a`a`a`a`a`a`a`a`a`a`a`a`a`a`a`a`a`a`a`a`{`{`{`{apapapapapapapapapapapapapapapapapapapapapapap`{`{`{anaoaoaoaoaoao````````````",
"```````````a`a`a`a`a`a`a`a`a`a`a`a`a`a`a`a`a`a`a`a`a`a`a`a`{`{`{`{apapapapapapapapapapapapapapapapapapapapapapap`{`{`{anaoaoaoaoaoao````````````",
"`````````````a`a`a`c`c`c`c`c`a`b`b`u`u`u`u`u`u`u`u`u`u`u`u`u`u`u`u`u`u`u`u`uaqaqaqapapapapapapapapapapapapapapap`{ananaoaoaoaoaoaoao````````````",
"`````````````a`a`a`a`a`c`c`c`a`b`b`u`u`u`u`u`u`u`u`u`u`u`u`u`u`u`u`u`u`u`u`uaqaqaqapapapapapapapapap`hapapapapapanaoaoaoaoaoaoaoaoao````````````",
"`````````````a`a`a`a`a`c`c`c`a`b`b`u`u`u`u`u`u`u`u`u`u`u`u`u`u`u`u`u`u`u`u`uaqaqaqapapapapapapapapap`hapapapapapanaoaoaoaoaoaoaoaoao````````````",
"`````````````````a`a`a`c`c`c`a`a`a`b`u`u`uaiaiaiaiai`u`u`u`u`u`u`u`u`u`u`u`u`uapapapapapaz`|`|apapapap`|`|apaoaoanaoaoaoaoaoaoaoaoao````````````",
"`````````````````a`a`a`a`a`a`a`a`a`b`u`u`u`u`uaiaiai`u`u`u`u`u`u`u`u`u`u`u`u`uapapapapapapazazapapap`|apapapaoaoanaoaoaoaoaoaoaoaoao````````````",
"`````````````````a`a`a`a`a`a`a`a`a`b`u`u`u`u`uaiaiai`u`u`u`u`u`u`u`u`u`u`u`u`uapapapapapapazazapapap`|apapapaoaoanaoaoaoaoaoaoaoaoao````````````",
"````````````````ao`a`a`a`|`|`a`a`a`a`b`b`u`u`u`u`u`u`u`u`u`z`|`|`u`u`u`u`u`u`uapapapapapazapapapapapazapapapaoaoanaoaoaoaoaoaoaoaoao````````````",
"````````````````ao`a`a`a`a`a`h`a`a`a`b`b`u`u`u`u`u`u`u`u`u`uazaz`u`u`u`u`u`u`u`u`uapapap`hapapapapap`hapapaoaoaoanaoaoaoaoaoaoaoaoao````````````",
"````````````````ao`a`a`a`a`a`h`a`a`a`b`b`u`u`u`u`u`u`u`u`u`uazaz`u`u`u`u`u`u`u`u`uapapap`hapapapapap`hapapaoaoaoanaoaoaoaoaoaoaoaoao````````````",
"````````````````aoaoao`a`a`aaz`a`a`a`a`a`b`u`u`u`u`u`u`u`uaz`u`u`u`u`u`u`u`u`u`u`uapapapap`|`|apapapapapapaoaoaoanaoaoaoaoaoaoaoaoao````````````",
"````````````````aoaoao`a`a`a`a`a`a`a`a`a`b`u`u`uazaz`u`u`u`uazaz`|`u`u`u`u`u`u`u`uapapap`|apapapapapapapapaoaoaoanaoaoaoaoaoaoaoaoao````````````",
"````````````````aoaoao`a`a`a`a`a`a`a`a`a`b`u`u`uazaz`u`u`u`uazaz`|`u`u`u`u`u`u`u`uapapap`|apapapapapapapapaoaoaoanaoaoaoaoaoaoaoaoao````````````",
"````````````````aoaoaoaoaoaoaoaoaoaoaoaoaoaoaoaoaoaoaoaoaoaoaoaoaoaoaoaoaoaoaoaoaoaoaoaoaoaoaoaoaoaoaoaoaoaoaoaoanaoaoaoaoaoaoaoaoao````````````",
"````````````````aoaoaoaoaoaoaoaoaoaoaoaoaoaoaoaoaoaoaoaoaoaoaoaoaoaoaoaoaoaoaoaoaoaoaoaoaoaoaoaoaoaoaoaoaoaoaoaoanaoaoaoaoaoaoaoaoao````````````",
"````````````````aoaoaoaoaoaoaoaoaoaoaoaoaoaoaoaoaoaoaoaoaoaoaoaoaoaoaoaoaoaoaoaoaoaoaoaoaoaoaoaoaoaoaoaoaoaoaoaoanaoaoaoaoaoaoaoaoao````````````",
"````````````````aoaoaoaoaoaoaoaoaoaoaoaoaoaoaoaoaoaoaoaoaoaoaoaoaoaoaoaoaoaoaoaoaoaoaoaoaoaoaoaoaoaoaoaoaoaoaoaoanaoaoaoaoaoaoaoaoao````````````",
"````````````````aoaoaoaoaoaoaoaoaoaoaoaoaoaoaoaoaoaoaoaoao``````````````aoaoaoaoaoaoaoaoaoaoaoaoaoaoaoaoaoaoaoaoanaoaoaoaoaoaoaoaoao````````````",
"````````````````aoaoaoaoaoaoaoaoaoaoaoaoaoaoaoaoaoaoaoaoao``````````````aoaoaoaoaoaoaoaoaoaoaoaoaoaoaoaoaoaoaoaoanaoaoaoaoaoaoaoaoao````````````",
"````````````````aoaoaoaoaoaoaoaoaoaoaoaoaoaoaoaoaoaoaoaoaoaoaoaoaoaoaoaoaoaoaoaoaoaoaoaoaoaoaoaoaoaoaoaoaoaoaoaoanaoaoaoaoaoaoaoaoao````````````",
"````````````````aoaoaoaoaoaoaoaoaoaoaoaoaoaoaoaoaoaoao``````````````````````aoaoaoaoaoaoaoaoaoaoaoaoaoaoaoaoaoaoanaoaoaoaoaoaoaoaoao````````````",
"````````````````aoaoaoaoaoaoaoaoaoaoaoaoaoaoaoaoaoaoao``````````````````````aoaoaoaoaoaoaoaoaoaoaoaoaoaoaoaoaoaoanaoaoaoaoaoaoaoaoao````````````",
"````````````````aoaoaoaoaoaoaoaoaoaoaoaoaoaoaoaoaoaoaoaoaoaoaoao``aoaoaoaoaoaoaoaoaoaoaoaoaoaoaoaoaoaoaoaoaoaoaoanaoaoaoaoaoaoaoaoao````````````",
"````````````````aoaoaoaoaoaoaoaoaoaoaoaoaoaoaoaoaoaoaoaoaoaoaoao``aoaoaoaoaoaoaoaoaoaoaoaoaoaoaoaoaoaoaoaoaoaoaoanaoaoaoaoaoaoaoao``````````````",
"````````````````aoaoaoaoaoaoaoaoaoaoaoaoaoaoaoaoaoaoaoaoaoaoaoao``aoaoaoaoaoaoaoaoaoaoaoaoaoaoaoaoaoaoaoaoaoaoaoanaoaoaoaoaoaoaoao``````````````",
"````````````````aoaoaoaoaoaoaoaoaoaoaoaoaoaoaoaoaoaoaoaoaoaoaoao``aoaoaoaoaoaoaoaoaoaoaoaoaoaoaoaoaoaoaoaoaoaoaoanaoaoaoaoaoao``````````````````",
"````````````````aoaoaoaoaoaoaoaoaoaoaoaoaoaoaoaoaoaoaoaoaoaoaoao``aoaoaoaoaoaoaoaoaoaoaoaoaoaoaoaoaoaoaoaoaoaoaoanaoaoaoaoao````````````````````",
"````````````````aoaoaoaoaoaoaoaoaoaoaoaoaoaoaoaoaoaoaoaoaoaoaoao``aoaoaoaoaoaoaoaoaoaoaoaoaoaoaoaoaoaoaoaoaoaoaoanaoaoaoaoao````````````````````",
"````````````````aoaoaoaoaoaoaoaoaoaoaoaoaoaoaoaoaoaoaoaoaoaoaoaoaoaoaoaoaoaoaoaoaoaoaoaoaoaoaoaoaoaoaoaoaoaoaoaoanaoaoao````````````````````````",
"````````````````aoaoaoaoaoaoaoaoaoaoaoaoaoaoaoaoaoaoaoaoaoaoaoaoaoaoaoaoaoaoaoaoaoaoaoaoaoaoaoaoaoaoaoaoaoaoaoaoanaoao``````````````````````````",
"````````````````aoaoaoaoaoaoaoaoaoaoaoaoaoaoaoaoaoaoaoaoaoaoaoaoaoaoaoaoaoaoaoaoaoaoaoaoaoaoaoaoaoaoaoaoaoaoaoaoanaoao``````````````````````````",
"````````````````aoaoaoaoaoaoaoaoaoaoaoaoaoaoaoaoaoaoaoaoaoaoaoaoaoaoaoaoaoaoaoaoaoaoaoaoaoaoaoaoaoaoaoaoaoaoaoaoan``````````````````````````````",
"````````````````````````````````````````````````````````````ababababababagagagazaz`h````````````````````````````````````````````````````````````",
"````````````````````````````````````````````````````````````ababababababagagagazaz`h````````````````````````````````````````````````````````````",
"``````````````````````````````````````````````````````````akakakakakaka|a{a{az`h`haz````````````````````````````````````````````````````````````",
"````````````````````````````````````````````````````````````a|a|`ja|a|`~azaz`hafaf`h````````````````````````````````````````````````````````````",
"````````````````````````````````````````````````````````````a|a|`ja|a|`~azaz`hafaf`h````````````````````````````````````````````````````````````",
"`````````````````````````````````````````````````````````````~`~`~`~`~`}`h`h`gaeae`g````````````````````````````````````````````````````````````",
"`````````````````````````````````````````````````````````````i`i`~`i`iah`o`o`tamamat````````````````````````````````````````````````````````````",
"`````````````````````````````````````````````````````````````i`i`~`i`iah`o`o`tamamat````````````````````````````````````````````````````````````",
"`````````````````````````````````````````````````````````````~`~`}`~`~`}aeae`n`s`sas````````````````````````````````````````````````````````````",
"`````````````````````````````````````````````````````````````}`}`~`i`iagamam`saaaaaj````````````````````````````````````````````````````````````",
"`````````````````````````````````````````````````````````````}`}`~`i`iagamam`saaaaaj````````````````````````````````````````````````````````````",
"````````````````````````````````````````````````````````````a{a{a{a{a{`z`n`n`marara`````````````````````````````````````````````````````````````",
"````````````````````````````````````````````````````````````afaf`z`g`gae`r`rar`l`lal````````````````````````````````````````````````````````````",
"````````````````````````````````````````````````````````````afaf`z`g`gae`r`rar`l`lal````````````````````````````````````````````````````````````",
"````````````````````````````````````````````````````````````ayayax`y`yax`f`f`k`f`f`e````````````````````````````````````````````````````````````",
"````````````````````````````````````````````````````````````awaw`xavavaw`e`ead`d`dac````````````````````````````````````````````````````````````",
"````````````````````````````````````````````````````````````awaw`xavavaw`e`ead`d`dac````````````````````````````````````````````````````````````",
"`````````````````````````````````````````````````````````````q`q`p`w`w`v`w`w`vauau``````````````````````````````````````````````````````````````",
"````````````````````````````````````````````````````````````````````````````````````````````````````````````````````````````````````````````````",
"````````````````````````````````````````````````````````````````````````````````````````````````````````````````````````````````````````````````",
"````````````````````````````````````````````````````````````````````````````````````````````````````````````````````````````````````````````````",
"````````````````````````````````````````````````````````````````````````````````````````````````````````````````````````````````````````````````",
"````````````````````````````````````````````````````````````````````````````````````````````````````````````````````````````````````````````````",
"````````````````````````````````````````````````````````````````````````````````````````````````````````````````````````````````````````````````"
} ;
