#define timex_width 64
#define timex_height 64
static char timex_bits[] = {
   0x00, 0x00, 0x00, 0x00, 0xfe, 0xff, 0x3f, 0x00, 0x00, 0x00, 0x00, 0x00,
   0xfe, 0xff, 0x3f, 0x00, 0x00, 0x00, 0x00, 0x00, 0xfe, 0xff, 0x3f, 0x00,
   0x00, 0x00, 0x00, 0x00, 0xfe, 0xff, 0x3f, 0x00, 0x00, 0x00, 0x00, 0x00,
   0xfe, 0xff, 0x3f, 0x00, 0x00, 0x00, 0x00, 0x00, 0xfe, 0xff, 0x3f, 0x00,
   0x00, 0x00, 0x00, 0x00, 0xff, 0xff, 0x7f, 0x00, 0x00, 0x00, 0x00, 0x00,
   0xff, 0xff, 0x7f, 0x00, 0x00, 0x00, 0x00, 0x00, 0xff, 0xff, 0x7f, 0x00,
   0x00, 0x00, 0x00, 0x00, 0xff, 0xff, 0x7f, 0x00, 0x00, 0x00, 0x00, 0x80,
   0xff, 0x8c, 0xff, 0x00, 0x00, 0x00, 0x00, 0x80, 0x0f, 0x0c, 0xf8, 0x01,
   0x00, 0x00, 0x00, 0xc0, 0x03, 0x0c, 0xe0, 0x01, 0x00, 0x00, 0x00, 0xc0,
   0x01, 0x00, 0xc0, 0x01, 0x00, 0x00, 0x00, 0x60, 0x00, 0x00, 0x00, 0x03,
   0x00, 0x00, 0x00, 0x30, 0x00, 0x00, 0x00, 0x06, 0x00, 0x00, 0x00, 0x18,
   0x04, 0x00, 0x00, 0x0c, 0x00, 0x00, 0x00, 0x18, 0x08, 0x00, 0x00, 0x0c,
   0x00, 0x00, 0x00, 0x0c, 0x18, 0x00, 0x00, 0x18, 0x00, 0x00, 0x00, 0x06,
   0x30, 0x00, 0x00, 0x30, 0x00, 0x00, 0x00, 0x06, 0x60, 0x00, 0x00, 0x30,
   0x00, 0x00, 0x00, 0x03, 0xc0, 0x00, 0x00, 0x60, 0x00, 0x00, 0x00, 0x03,
   0xc0, 0x01, 0x00, 0x60, 0x00, 0x00, 0x00, 0x03, 0x80, 0x03, 0x00, 0x60,
   0x00, 0x00, 0x80, 0x02, 0x00, 0x03, 0x00, 0xa0, 0x00, 0x00, 0x80, 0x01,
   0x00, 0x06, 0x00, 0xc0, 0x00, 0x00, 0x80, 0x01, 0x00, 0x0e, 0x00, 0xc0,
   0x00, 0x00, 0x80, 0x0f, 0x00, 0x1c, 0x00, 0xf8, 0x00, 0x00, 0x80, 0x0f,
   0x00, 0x1c, 0x00, 0xf8, 0x00, 0x00, 0x80, 0x01, 0x00, 0x18, 0x00, 0xc0,
   0x00, 0x00, 0x80, 0x01, 0x00, 0x10, 0x00, 0xc0, 0x00, 0x00, 0x80, 0x01,
   0x00, 0x20, 0x00, 0xc0, 0x00, 0x00, 0x80, 0x02, 0x00, 0x20, 0x00, 0xa0,
   0x00, 0x00, 0x80, 0x02, 0x00, 0x40, 0x00, 0xa0, 0x00, 0x00, 0x80, 0x02,
   0x00, 0x40, 0x00, 0xa0, 0x00, 0x00, 0x00, 0x03, 0x00, 0x80, 0x00, 0x60,
   0x00, 0x00, 0x00, 0x05, 0x00, 0x80, 0x00, 0x50, 0x00, 0x00, 0x00, 0x05,
   0x00, 0x00, 0x01, 0x50, 0x00, 0x00, 0x00, 0x0a, 0x00, 0x00, 0x00, 0x28,
   0x00, 0x00, 0x00, 0x12, 0x00, 0x00, 0x00, 0x24, 0x00, 0x00, 0x00, 0x14,
   0x00, 0x00, 0x00, 0x14, 0x00, 0x00, 0x00, 0x28, 0x00, 0x00, 0x00, 0x0a,
   0x00, 0x00, 0x00, 0x48, 0x00, 0x00, 0x00, 0x09, 0x00, 0x00, 0x00, 0x90,
   0x01, 0x00, 0xc0, 0x04, 0x00, 0x00, 0x00, 0x20, 0x02, 0x18, 0x20, 0x02,
   0x00, 0x00, 0x00, 0xc0, 0x0c, 0x18, 0x98, 0x01, 0x00, 0x00, 0x00, 0x80,
   0xf1, 0x98, 0xc7, 0x00, 0xfe, 0x03, 0x00, 0x00, 0x07, 0x7f, 0xf0, 0x00,
   0xff, 0x07, 0x00, 0x00, 0x3f, 0x00, 0x7e, 0x00, 0x70, 0x00, 0x00, 0x0e,
   0xcf, 0xf9, 0x7f, 0x00, 0x70, 0x00, 0x00, 0x1c, 0xe7, 0xfe, 0x7f, 0x00,
   0x70, 0x00, 0x00, 0x38, 0x73, 0xff, 0x7f, 0x00, 0x70, 0x00, 0x00, 0x38,
   0xb9, 0xff, 0x7f, 0x00, 0x70, 0x06, 0x00, 0x70, 0x9c, 0xff, 0x7f, 0x00,
   0x70, 0x06, 0x00, 0xe0, 0xce, 0xff, 0x7f, 0x00, 0x70, 0x00, 0x00, 0xc0,
   0xe7, 0xff, 0x3f, 0x00, 0x70, 0x80, 0x0d, 0xc7, 0xf7, 0xff, 0x3f, 0x00,
   0x70, 0xe6, 0xbf, 0x8f, 0xf3, 0xff, 0x3f, 0x00, 0x70, 0x66, 0xb3, 0xc0,
   0xe7, 0xff, 0x3f, 0x00, 0x70, 0x66, 0xb3, 0xef, 0xce, 0xff, 0x3f, 0x00,
   0x70, 0x66, 0xb3, 0x70, 0xdc, 0xff, 0x3f, 0x00, 0x70, 0x66, 0xb3, 0x38,
   0x9c, 0xff, 0x3f, 0x00, 0x70, 0x0c, 0x00, 0x1f, 0x38, 0xff, 0x3f, 0x00,
   0x70, 0x18, 0x00, 0x0e, 0x70, 0xfe, 0x3f, 0x00};
