#define bitmap.new_width 64
#define bitmap.new_height 64
static char bitmap.new_bits[] = {
   0x00, 0x00, 0x00, 0x00, 0x00, 0x00, 0x00, 0x00, 0x00, 0x00, 0x00, 0x00,
   0x00, 0x00, 0x00, 0x00, 0x00, 0x00, 0x00, 0x00, 0x00, 0x00, 0x00, 0x00,
   0x00, 0x00, 0x00, 0x00, 0x00, 0x00, 0x00, 0x00, 0x00, 0x00, 0x00, 0x00,
   0x00, 0xfe, 0x3f, 0x00, 0x00, 0x00, 0x00, 0x00, 0x00, 0x02, 0x38, 0x00,
   0x00, 0x00, 0x00, 0x00, 0x00, 0x02, 0x3c, 0x00, 0x00, 0x00, 0x00, 0x00,
   0x00, 0x02, 0x3e, 0x00, 0x00, 0xf0, 0x00, 0x00, 0x00, 0x02, 0x3f, 0x00,
   0x00, 0xf0, 0x00, 0x00, 0x00, 0x82, 0x3f, 0x00, 0x00, 0xf0, 0x00, 0x00,
   0x00, 0xc2, 0x3f, 0x00, 0x00, 0xf0, 0x00, 0x00, 0x00, 0xe2, 0x3f, 0x00,
   0x00, 0x60, 0x00, 0x80, 0x00, 0xe2, 0x3f, 0x00, 0x00, 0xfc, 0x03, 0x80,
   0x01, 0xe2, 0x3f, 0x00, 0x00, 0xfe, 0x07, 0xfe, 0x03, 0xe2, 0x3f, 0x00,
   0x00, 0x63, 0x0c, 0xfe, 0x07, 0xe2, 0x3f, 0x00, 0x00, 0x66, 0x06, 0xfe,
   0x0f, 0xe2, 0x3f, 0x00, 0x00, 0x6c, 0x03, 0xfe, 0x07, 0xe2, 0x3f, 0x00,
   0x00, 0xf8, 0x01, 0xfe, 0x03, 0xe2, 0x3f, 0x00, 0x00, 0xf0, 0x00, 0x80,
   0x01, 0xe2, 0x3f, 0x00, 0x00, 0xf0, 0x00, 0x80, 0x00, 0xe2, 0x3f, 0x00,
   0x00, 0xf8, 0x01, 0x00, 0x00, 0xe2, 0x3f, 0x00, 0x00, 0x98, 0x01, 0x00,
   0x00, 0xe2, 0x3f, 0x00, 0x00, 0x98, 0x01, 0x00, 0x00, 0xe2, 0x3f, 0x00,
   0x00, 0x0c, 0x03, 0x00, 0x00, 0xe2, 0x3f, 0x00, 0x00, 0x0c, 0x03, 0x00,
   0x00, 0xfe, 0x3f, 0x00, 0x00, 0x0c, 0x03, 0x00, 0x00, 0xe0, 0x1f, 0x00,
   0x00, 0x06, 0x06, 0x00, 0x00, 0xe0, 0x0f, 0x00, 0x00, 0x06, 0x06, 0x00,
   0x00, 0xe0, 0x07, 0x00, 0x00, 0x06, 0x06, 0x00, 0x00, 0xe0, 0x03, 0x00,
   0x00, 0x00, 0x00, 0x00, 0x00, 0xe0, 0x01, 0x00, 0x00, 0x00, 0x00, 0x00,
   0x00, 0xe0, 0x00, 0x00, 0x00, 0x00, 0x00, 0x00, 0x00, 0x60, 0x00, 0x00,
   0x00, 0x00, 0x00, 0x00, 0x00, 0x20, 0x00, 0x00, 0x00, 0x00, 0x00, 0x00,
   0x00, 0x00, 0x00, 0x00, 0x00, 0x00, 0x00, 0x00, 0x00, 0x00, 0x00, 0x00,
   0x00, 0x00, 0x00, 0x00, 0x00, 0x00, 0x00, 0x00, 0x00, 0x00, 0x00, 0x00,
   0x00, 0x00, 0x00, 0x00, 0x00, 0x00, 0x00, 0x00, 0x00, 0x00, 0x00, 0x00,
   0x00, 0x00, 0x00, 0x00, 0x00, 0x00, 0x00, 0x00, 0x00, 0x0f, 0x03, 0x00,
   0x00, 0x00, 0x00, 0x00, 0x80, 0x19, 0x63, 0x00, 0x00, 0x00, 0x00, 0x00,
   0x80, 0x01, 0x60, 0x00, 0x00, 0x00, 0x00, 0x00, 0x80, 0x81, 0xe3, 0xf1,
   0x9b, 0x7d, 0x5c, 0x00, 0x00, 0x0f, 0x63, 0x00, 0x9b, 0xcd, 0x66, 0x00,
   0x00, 0x18, 0x63, 0x80, 0x99, 0xcd, 0x66, 0x00, 0x00, 0x18, 0x63, 0x60,
   0x98, 0xcd, 0x3c, 0x00, 0x80, 0x19, 0x63, 0x36, 0x98, 0xcd, 0x06, 0x00,
   0x00, 0xcf, 0xcf, 0xf3, 0xf3, 0xcd, 0x3c, 0x00, 0x00, 0x00, 0x00, 0x00,
   0x00, 0x00, 0x66, 0x00, 0x80, 0x01, 0x00, 0x00, 0x80, 0x01, 0x3c, 0x00,
   0x80, 0x01, 0x00, 0x00, 0x80, 0x01, 0x00, 0x00, 0x80, 0x01, 0x00, 0x00,
   0x80, 0x01, 0x00, 0x00, 0x80, 0x8f, 0xc7, 0xf3, 0xf1, 0x79, 0x3e, 0x00,
   0x80, 0xd9, 0x6c, 0x36, 0x9b, 0xcd, 0x66, 0x00, 0x80, 0xd9, 0xef, 0x37,
   0x9b, 0xfd, 0x66, 0x00, 0x80, 0xd9, 0x60, 0x30, 0x9b, 0x0d, 0x66, 0x00,
   0x80, 0xd9, 0x6c, 0x36, 0x9b, 0xcd, 0x66, 0x00, 0x80, 0x8f, 0xc7, 0x33,
   0xf3, 0x79, 0x66, 0x00, 0x00, 0x00, 0x00, 0x00, 0x00, 0x00, 0x00, 0x00,
   0x00, 0x00, 0x00, 0x00, 0x00, 0x00, 0x00, 0x00, 0x00, 0x00, 0x00, 0x00,
   0x00, 0x00, 0x00, 0x00, 0x00, 0x00, 0x00, 0x00, 0x00, 0x00, 0x00, 0x00,
   0x00, 0x00, 0x00, 0x00, 0x00, 0x00, 0x00, 0x00};
