#define have_session_width 64
#define have_session_height 64
static char have_session_bits[] = {
   0x00, 0x00, 0x00, 0x00, 0x00, 0x00, 0x00, 0x00, 0x00, 0x00, 0x00, 0x00,
   0x00, 0x00, 0x00, 0x00, 0x00, 0x00, 0x00, 0x00, 0x00, 0x00, 0x00, 0x00,
   0x00, 0x00, 0x00, 0x00, 0x00, 0x00, 0x00, 0x00, 0x00, 0x00, 0x00, 0x00,
   0x00, 0xfe, 0x3f, 0x00, 0x00, 0x00, 0x00, 0x00, 0x00, 0xfe, 0x3f, 0x00,
   0x00, 0x00, 0x00, 0x00, 0x00, 0xfe, 0x3f, 0x00, 0x00, 0x00, 0x00, 0x00,
   0x00, 0xfe, 0x3f, 0x00, 0x00, 0xf0, 0x00, 0x00, 0x00, 0xfe, 0x3f, 0x00,
   0x00, 0xf0, 0x00, 0x00, 0x00, 0xfe, 0x3f, 0x00, 0x00, 0xf0, 0x00, 0x00,
   0x00, 0xfe, 0x3f, 0x00, 0x00, 0xf0, 0x00, 0x00, 0x00, 0xfe, 0x3f, 0x00,
   0x00, 0x60, 0x00, 0x00, 0x00, 0xfe, 0x3f, 0x00, 0x00, 0xfc, 0x03, 0x00,
   0x00, 0xfe, 0x3f, 0x00, 0x00, 0xfe, 0x07, 0x00, 0x00, 0xfe, 0x3f, 0x00,
   0x00, 0x63, 0x0c, 0x00, 0x00, 0xfe, 0x3f, 0x00, 0x00, 0x66, 0x06, 0x00,
   0x00, 0xfe, 0x3f, 0x00, 0x00, 0x6c, 0x03, 0x00, 0x00, 0xfe, 0x3f, 0x00,
   0x00, 0xf8, 0x01, 0x00, 0x00, 0xfe, 0x3f, 0x00, 0x00, 0xf0, 0x00, 0x00,
   0x00, 0xfe, 0x3f, 0x00, 0x00, 0xf0, 0x00, 0x00, 0x00, 0xfe, 0x3f, 0x00,
   0x00, 0xf8, 0x01, 0x00, 0x00, 0xfe, 0x3f, 0x00, 0x00, 0x98, 0x01, 0x00,
   0x00, 0xfe, 0x3f, 0x00, 0x00, 0x98, 0x01, 0x00, 0x00, 0xfe, 0x3f, 0x00,
   0x00, 0x0c, 0x03, 0x00, 0x00, 0xfe, 0x3f, 0x00, 0x00, 0x0c, 0x03, 0x00,
   0x00, 0xfe, 0x3f, 0x00, 0x00, 0x0c, 0x03, 0x00, 0x00, 0x00, 0x00, 0x00,
   0x00, 0x06, 0x06, 0x00, 0x00, 0x00, 0x00, 0x00, 0x00, 0x06, 0x06, 0x00,
   0x00, 0x00, 0x00, 0x00, 0x00, 0x06, 0x06, 0x00, 0x00, 0x00, 0x00, 0x00,
   0x00, 0x00, 0x00, 0x00, 0x00, 0x00, 0x00, 0x00, 0x00, 0x00, 0x00, 0x00,
   0x00, 0x00, 0x00, 0x00, 0x00, 0x00, 0x00, 0x00, 0x00, 0x00, 0x00, 0x00,
   0x00, 0x00, 0x00, 0x00, 0x00, 0x00, 0x00, 0x00, 0x00, 0x00, 0x00, 0x00,
   0x00, 0x00, 0x00, 0x00, 0x00, 0x00, 0x00, 0x00, 0x00, 0x00, 0x00, 0x00,
   0x00, 0x00, 0x00, 0x00, 0x00, 0x00, 0x00, 0x00, 0x00, 0x00, 0x00, 0x00,
   0x00, 0x00, 0x00, 0x00, 0x00, 0x00, 0x00, 0x00, 0x00, 0x00, 0x00, 0x00,
   0x00, 0x00, 0x00, 0x00, 0x00, 0x00, 0x00, 0x00, 0x00, 0x0f, 0x03, 0x00,
   0x00, 0x00, 0x00, 0x00, 0x80, 0x19, 0x63, 0x00, 0x00, 0x00, 0x00, 0x00,
   0x80, 0x01, 0x60, 0x00, 0x00, 0x00, 0x00, 0x00, 0x80, 0x81, 0xe3, 0xf1,
   0x9b, 0x7d, 0x5c, 0x00, 0x00, 0x0f, 0x63, 0x00, 0x9b, 0xcd, 0x66, 0x00,
   0x00, 0x18, 0x63, 0x80, 0x99, 0xcd, 0x66, 0x00, 0x00, 0x18, 0x63, 0x60,
   0x98, 0xcd, 0x3c, 0x00, 0x80, 0x19, 0x63, 0x36, 0x98, 0xcd, 0x06, 0x00,
   0x00, 0xcf, 0xcf, 0xf3, 0xf3, 0xcd, 0x3c, 0x00, 0x00, 0x00, 0x00, 0x00,
   0x00, 0x00, 0x66, 0x00, 0x00, 0x00, 0x00, 0x00, 0x00, 0x00, 0x3c, 0x00,
   0x00, 0x00, 0x00, 0x00, 0x00, 0x00, 0x00, 0x00, 0x00, 0x00, 0x00, 0x00,
   0x00, 0x00, 0x00, 0x00, 0x00, 0x00, 0x00, 0x00, 0x00, 0x00, 0x00, 0x00,
   0x00, 0x00, 0x00, 0x00, 0x00, 0x00, 0x00, 0x00, 0x00, 0x00, 0x00, 0x00,
   0x00, 0x00, 0x00, 0x00, 0x00, 0x00, 0x00, 0x00, 0x00, 0x00, 0x00, 0x00,
   0x00, 0x00, 0x00, 0x00, 0x00, 0x00, 0x00, 0x00, 0x00, 0x00, 0x00, 0x00,
   0x00, 0x00, 0x00, 0x00, 0x00, 0x00, 0x00, 0x00, 0x00, 0x00, 0x00, 0x00,
   0x00, 0x00, 0x00, 0x00, 0x00, 0x00, 0x00, 0x00, 0x00, 0x00, 0x00, 0x00,
   0x00, 0x00, 0x00, 0x00, 0x00, 0x00, 0x00, 0x00, 0x00, 0x00, 0x00, 0x00,
   0x00, 0x00, 0x00, 0x00, 0x00, 0x00, 0x00, 0x00};
